# xmcd
#
# Track frame offsets:
#	150
#	10747
#	20906
#	34144
#	46958
#	57976
#	68923
#	83095
#	93633
#	105886
#	116258
#	133188
#
# Disc length: 1969 seconds
#
# Revision: 1
# Processed by: cddbd v1.5.1PL0 Copyright (c) Steve Scherf et al.
# Submitted via: audiograbber 1.83.01
#
DISCID=9807af0c
DTITLE=Various Artist - Country Lovin Country Cryin
DYEAR=1900
DGENRE=
TTITLE0=Roger Miller-Husbands and Wives
TTITLE1=Don Gibson-Sea of Heartbreak
TTITLE2=Bobby Dare- Detroit City
TTITLE3=Lynn Anderson-Top of the world
TTITLE4=Conway Twitty-As soon as I hang up the phone
TTITLE5=Tammy Wynette-Womanhood
TTITLE6=Roger Miller- My Elusive Dream
TTITLE7=Don Gibson-Funny familar forgetten feeling
TTITLE8=Bobby Dare- Streets of Baltimore
TTITLE9=Johnny Tillotson-Send me the pillow that you dream on
TTITLE10=Conway Twitty- Dont cry joni
TTITLE11=Lynee Anderson-Faithless Love
EXTD=
EXTT0=
EXTT1=
EXTT2=
EXTT3=
EXTT4=
EXTT5=
EXTT6=
EXTT7=
EXTT8=
EXTT9=
EXTT10=
EXTT11=
PLAYORDER=
